<svg width="352" height="376" viewBox="0 0 352 376" fill="none" xmlns="http://www.w3.org/2000/svg">
<path d="M100.054 223.874L50.7273 218.768L29.8349 171.35L13.6035 175.578C13.6035 175.578 25.5956 225.689 39.0164 233.454C52.4372 241.218 98.2857 242.612 98.2857 242.612L100.054 223.874Z" fill="#A50034"/>
<path d="M126.277 247.992C134.303 238.961 133.489 225.134 124.458 217.108C115.428 209.082 101.6 209.896 93.5742 218.927C85.548 227.957 86.3622 241.784 95.3928 249.811C104.423 257.837 118.251 257.022 126.277 247.992Z" fill="#263238"/>
<path d="M109.926 255.353C104.857 255.353 99.9446 253.596 96.026 250.38C92.1074 247.164 89.4251 242.689 88.4362 237.717C87.4472 232.745 88.2128 227.584 90.6025 223.113C92.9921 218.642 96.858 215.139 101.541 213.199C106.225 211.259 111.436 211.003 116.287 212.474C121.138 213.946 125.329 217.054 128.145 221.269C130.961 225.484 132.229 230.545 131.732 235.59C131.235 240.635 129.005 245.351 125.42 248.936C123.39 250.977 120.975 252.595 118.316 253.696C115.656 254.798 112.805 255.361 109.926 255.353ZM109.926 211.601C104.871 211.596 99.9696 213.344 96.0582 216.547C92.1468 219.75 89.467 224.211 88.4755 229.168C87.484 234.125 88.2421 239.273 90.6206 243.735C92.9991 248.196 96.8509 251.694 101.52 253.634C106.188 255.574 111.385 255.835 116.225 254.372C121.064 252.91 125.247 249.815 128.06 245.614C130.874 241.414 132.144 236.368 131.654 231.336C131.164 226.304 128.944 221.598 125.373 218.019C123.351 215.981 120.944 214.364 118.293 213.263C115.641 212.161 112.798 211.596 109.926 211.601Z" fill="#263238"/>
<path d="M46.3055 237.2C55.1165 235.084 60.5444 226.227 58.4291 217.416C56.3138 208.605 47.4562 203.177 38.6452 205.292C29.8342 207.407 24.4062 216.265 26.5216 225.076C28.6369 233.887 37.4945 239.315 46.3055 237.2Z" fill="#263238"/>
<path d="M30.0162 175.184C35.2528 169.948 35.2528 161.457 30.0162 156.221C24.7797 150.984 16.2895 150.984 11.0529 156.221C5.81637 161.457 5.81637 169.948 11.0529 175.184C16.2895 180.421 24.7797 180.421 30.0162 175.184Z" fill="#263238"/>
<path d="M41.4346 158.446L30.3934 167.77L26.4115 163.054L37.4526 153.73C38.034 153.24 38.7866 153 39.5449 153.064C40.3032 153.128 41.005 153.49 41.4959 154.071L41.768 154.394C42.0129 154.681 42.1986 155.014 42.3144 155.374C42.4302 155.733 42.4739 156.112 42.4429 156.489C42.412 156.865 42.3069 157.232 42.1339 157.568C41.9608 157.904 41.7232 158.202 41.4346 158.446Z" fill="#263238"/>
<path d="M27.4106 141.37V155.423C27.4106 155.532 27.3675 155.636 27.2906 155.713C27.2137 155.79 27.1095 155.833 27.0008 155.833H21.6606C21.5519 155.833 21.4476 155.79 21.3707 155.713C21.2939 155.636 21.2507 155.532 21.2507 155.423V141.37C21.2507 140.609 21.553 139.88 22.091 139.341C22.6291 138.803 23.3589 138.501 24.1199 138.501H24.5415C25.3024 138.501 26.0322 138.803 26.5703 139.341C27.1084 139.88 27.4106 140.609 27.4106 141.37Z" fill="#263238"/>
<path d="M17.4667 141.423L20.5347 155.138C20.5584 155.244 20.5391 155.355 20.4808 155.447C20.4226 155.538 20.3303 155.603 20.2242 155.627L15.0128 156.793C14.9067 156.817 14.7956 156.797 14.7038 156.739C14.612 156.681 14.5471 156.588 14.5233 156.482L11.4553 142.768C11.2892 142.026 11.4249 141.247 11.8325 140.605C12.2401 139.962 12.8863 139.508 13.6289 139.342L14.0404 139.25C14.783 139.084 15.5611 139.219 16.2037 139.627C16.8463 140.035 17.3006 140.681 17.4667 141.423Z" fill="#263238"/>
<path d="M6.76931 144.86L13.7959 157.031C13.8503 157.125 13.865 157.237 13.8368 157.342C13.8087 157.447 13.74 157.536 13.6459 157.59L9.02112 160.261C8.92697 160.315 8.8151 160.33 8.71009 160.302C8.60509 160.273 8.51555 160.205 8.4612 160.111L1.4346 147.94C1.05412 147.281 0.951022 146.498 1.14797 145.763C1.34492 145.028 1.82581 144.401 2.48481 144.021L2.84993 143.81C3.50893 143.429 4.29209 143.326 5.02712 143.523C5.76215 143.72 6.38883 144.201 6.76931 144.86Z" fill="#263238"/>
<path d="M314.433 346.711L329.198 340.432L286.595 240.261L271.831 246.54L314.433 346.711Z" fill="#A50034"/>
<path d="M288.712 249.833C296.521 240.615 295.379 226.811 286.16 219.001C276.942 211.192 263.138 212.334 255.328 221.552C247.519 230.771 248.661 244.575 257.879 252.384C267.098 260.194 280.902 259.052 288.712 249.833Z" fill="#263238"/>
<path d="M272.065 257.649C268.633 257.65 265.248 256.846 262.184 255.301C259.119 253.756 256.46 251.513 254.421 248.752C252.382 245.992 251.019 242.791 250.443 239.408C249.866 236.024 250.092 232.553 251.102 229.273C252.3 225.404 254.547 221.943 257.594 219.275C260.64 216.607 264.367 214.835 268.36 214.158C272.353 213.481 276.455 213.924 280.211 215.438C283.968 216.953 287.23 219.479 289.637 222.737C292.043 225.994 293.499 229.855 293.843 233.89C294.187 237.926 293.405 241.977 291.584 245.595C289.763 249.212 286.975 252.254 283.529 254.382C280.083 256.51 276.115 257.641 272.065 257.649ZM272.065 213.873C268.022 213.877 264.059 215.003 260.618 217.125C257.176 219.247 254.391 222.282 252.572 225.893C250.752 229.503 249.971 233.548 250.313 237.576C250.655 241.605 252.109 245.459 254.511 248.711C256.914 251.963 260.171 254.485 263.921 255.995C267.672 257.506 271.767 257.947 275.753 257.269C279.739 256.59 283.458 254.82 286.498 252.153C289.537 249.487 291.777 246.03 292.969 242.167C294.67 236.63 294.105 230.645 291.398 225.525C288.691 220.405 284.063 216.568 278.529 214.857C276.413 214.201 274.21 213.87 271.995 213.873H272.065Z" fill="#263238"/>
<path d="M316.313 301.101C318.739 292.37 313.629 283.326 304.898 280.9C296.167 278.474 287.123 283.584 284.697 292.315C282.271 301.045 287.382 310.09 296.112 312.516C304.843 314.942 313.887 309.831 316.313 301.101Z" fill="#263238"/>
<path d="M325.245 361.185C332.65 361.185 338.654 355.182 338.654 347.776C338.654 340.371 332.65 334.367 325.245 334.367C317.839 334.367 311.835 340.371 311.835 347.776C311.835 355.182 317.839 361.185 325.245 361.185Z" fill="#263238"/>
<path d="M307.707 361.28L315.215 348.96L320.485 352.172L312.977 364.492C312.581 365.142 311.943 365.608 311.203 365.787C310.464 365.967 309.683 365.845 309.033 365.449L308.673 365.23C308.35 365.034 308.068 364.777 307.845 364.473C307.621 364.168 307.46 363.823 307.37 363.456C307.28 363.089 307.263 362.708 307.321 362.334C307.379 361.961 307.51 361.603 307.707 361.28Z" fill="#263238"/>
<path d="M326.401 373.031L321.952 359.701C321.917 359.597 321.925 359.485 321.974 359.388C322.022 359.29 322.107 359.216 322.211 359.182L327.276 357.491C327.379 357.457 327.492 357.465 327.589 357.513C327.686 357.562 327.76 357.647 327.795 357.75L332.244 371.08C332.359 371.439 332.402 371.817 332.371 372.193C332.34 372.568 332.235 372.934 332.063 373.269C331.89 373.604 331.654 373.902 331.366 374.145C331.078 374.389 330.746 374.573 330.387 374.688L329.987 374.822C329.274 375.05 328.5 374.991 327.83 374.656C327.16 374.321 326.647 373.738 326.401 373.031Z" fill="#263238"/>
<path d="M335.827 369.836L328.574 357.799C328.547 357.753 328.528 357.702 328.52 357.648C328.512 357.595 328.515 357.541 328.528 357.489C328.541 357.436 328.564 357.387 328.596 357.344C328.628 357.301 328.668 357.264 328.714 357.236L333.288 354.48C333.334 354.453 333.385 354.434 333.439 354.426C333.492 354.418 333.546 354.421 333.598 354.434C333.651 354.447 333.7 354.47 333.743 354.502C333.786 354.534 333.823 354.574 333.851 354.62L341.103 366.657C341.496 367.309 341.614 368.09 341.431 368.828C341.247 369.567 340.778 370.203 340.127 370.595L339.765 370.813C339.114 371.206 338.333 371.323 337.594 371.14C336.855 370.957 336.22 370.488 335.827 369.836Z" fill="#263238"/>
<path d="M344.88 363.199L334.362 353.88C334.28 353.808 334.231 353.706 334.224 353.598C334.218 353.489 334.254 353.383 334.327 353.301L337.86 349.313C337.932 349.232 338.034 349.182 338.142 349.176C338.251 349.169 338.357 349.206 338.439 349.278L348.957 358.597C349.527 359.102 349.873 359.812 349.919 360.572C349.965 361.331 349.707 362.078 349.202 362.647L348.923 362.963C348.417 363.529 347.708 363.872 346.95 363.916C346.193 363.96 345.448 363.702 344.88 363.199Z" fill="#263238"/>
<path d="M103.427 210.688C103.427 210.688 105.008 364.265 191.189 367.263C277.37 370.261 280.989 211.788 280.989 210.688C280.989 210.688 270.812 187.793 192.208 188.683C113.604 189.573 103.427 210.688 103.427 210.688Z" fill="#A50034"/>
<path d="M151.816 183.659H224.659C229.413 183.659 233.266 179.805 233.266 175.051V173.798C233.266 169.044 229.413 165.19 224.659 165.19H151.816C147.063 165.19 143.209 169.044 143.209 173.798V175.051C143.209 179.805 147.063 183.659 151.816 183.659Z" fill="#263238"/>
<path d="M185.099 47.0968H191.388V15.3015H185.099V47.0968Z" fill="#263238"/>
<path d="M284.402 141.753C294.331 139.393 300.467 129.43 298.107 119.501C295.747 109.571 285.785 103.435 275.855 105.795C265.925 108.155 259.789 118.118 262.149 128.047C264.509 137.977 274.472 144.113 284.402 141.753Z" fill="#A50034"/>
<path d="M97.6723 140.553C107.626 138.295 113.864 128.396 111.607 118.443C109.349 108.49 99.4498 102.251 89.4965 104.509C79.5431 106.766 73.3046 116.665 75.5623 126.619C77.82 136.572 87.719 142.811 97.6723 140.553Z" fill="#A50034"/>
<path d="M184.584 40.199C184.584 40.199 109.446 39.2972 97.5711 104.422C85.6961 169.547 149.217 170.718 167.497 171.948C175.777 172.51 193.507 172.568 209.153 172.287C243.794 171.69 268.27 164.991 276.597 132.856C277.589 129.088 278.212 125.233 278.459 121.344C280.649 86.0709 256.841 38.4657 184.584 40.199Z" fill="#A50034"/>
<path d="M239.087 139.321L129.929 141.019C127.205 141.067 124.499 140.577 121.965 139.578C119.431 138.579 117.118 137.09 115.16 135.196C113.202 133.303 111.637 131.041 110.554 128.542C109.471 126.042 108.892 123.354 108.849 120.63C108.802 117.906 109.293 115.199 110.294 112.665C111.294 110.131 112.784 107.819 114.679 105.861C116.574 103.903 118.836 102.338 121.336 101.255C123.836 100.172 126.525 99.593 129.25 99.5503L238.408 97.8522C241.132 97.8026 243.839 98.291 246.373 99.2896C248.908 100.288 251.221 101.777 253.179 103.671C255.138 105.565 256.703 107.827 257.785 110.327C258.868 112.828 259.446 115.517 259.487 118.241C259.535 120.966 259.046 123.673 258.046 126.208C257.046 128.743 255.556 131.055 253.661 133.014C251.766 134.972 249.503 136.537 247.002 137.619C244.501 138.701 241.812 139.28 239.087 139.321Z" fill="#263238"/>
<path d="M152.613 118.37C152.359 119.661 151.728 120.847 150.8 121.779C149.872 122.711 148.688 123.348 147.398 123.607C146.109 123.867 144.771 123.738 143.555 123.237C142.338 122.737 141.297 121.887 140.564 120.795C139.831 119.703 139.437 118.418 139.434 117.102C139.431 115.787 139.818 114.5 140.546 113.405C141.274 112.309 142.31 111.454 143.524 110.947C144.738 110.441 146.075 110.305 147.366 110.559C148.224 110.727 149.04 111.062 149.767 111.546C150.495 112.029 151.121 112.652 151.608 113.377C152.095 114.103 152.435 114.917 152.607 115.774C152.779 116.63 152.781 117.512 152.613 118.37Z" fill="white"/>
<path d="M228.84 117.152C228.588 118.444 227.959 119.632 227.031 120.566C226.104 121.5 224.921 122.138 223.631 122.399C222.341 122.66 221.003 122.533 219.785 122.033C218.568 121.534 217.526 120.684 216.791 119.592C216.057 118.5 215.663 117.215 215.659 115.899C215.655 114.583 216.042 113.295 216.77 112.199C217.498 111.103 218.535 110.247 219.749 109.74C220.964 109.234 222.302 109.099 223.593 109.352C225.322 109.692 226.846 110.704 227.83 112.167C228.814 113.629 229.177 115.422 228.84 117.152Z" fill="white"/>
<path d="M217.866 271.678C217.439 277.539 215.283 283.141 211.671 287.776C208.06 292.411 203.155 295.871 197.577 297.719C191.999 299.567 185.998 299.719 180.334 298.156C174.669 296.594 169.596 293.387 165.754 288.941C161.912 284.495 159.475 279.009 158.75 273.178C158.026 267.347 159.047 261.432 161.684 256.181C164.321 250.93 168.456 246.579 173.566 243.678C178.676 240.777 184.532 239.456 190.392 239.883C198.251 240.458 205.56 244.131 210.712 250.093C215.863 256.055 218.437 263.819 217.866 271.678Z" fill="#263238"/>
<path d="M209.821 271.093C209.509 275.364 207.936 279.447 205.303 282.825C202.67 286.202 199.095 288.724 195.029 290.069C190.963 291.415 186.59 291.525 182.462 290.385C178.333 289.245 174.636 286.906 171.837 283.665C169.038 280.424 167.262 276.425 166.736 272.175C166.209 267.925 166.955 263.614 168.878 259.787C170.802 255.961 173.817 252.791 177.542 250.678C181.268 248.565 185.536 247.604 189.807 247.917C192.643 248.123 195.411 248.886 197.953 250.163C200.494 251.439 202.759 253.204 204.617 255.357C206.476 257.509 207.892 260.007 208.785 262.707C209.678 265.407 210.03 268.257 209.821 271.093Z" fill="white"/>
<path d="M199.387 275.028C199.221 273.845 199.155 272.65 199.188 271.456C199.129 269.219 199.082 266.022 199.082 262.087L199.316 262.52L188.179 256.021H188.8L177.557 262.333C177.253 262.848 177.967 261.642 177.897 261.771V263.434V265.109C177.897 266.209 177.897 267.31 177.838 268.388C177.838 270.542 177.756 272.627 177.721 274.641L177.417 274.103L188.425 280.825H187.933C191.365 278.974 194.199 277.499 196.131 276.492C197.171 275.9 198.255 275.391 199.375 274.969C198.502 275.681 197.56 276.305 196.564 276.831C194.667 278.002 191.88 279.654 188.367 281.68L188.121 281.82L187.875 281.68L176.726 275.18L176.421 275.004V274.63C176.421 272.615 176.445 270.531 176.492 268.376C176.492 267.299 176.492 266.209 176.492 265.097V263.434V261.818C176.421 261.947 177.136 260.752 176.831 261.256L188.109 255.002L188.437 254.826L188.741 255.014L199.738 261.736L199.984 261.888V262.169C199.855 266.221 199.726 269.477 199.609 271.69C199.639 272.807 199.565 273.925 199.387 275.028Z" fill="#A50034"/>
<path d="M195.579 21.9858C199.626 17.9384 199.626 11.3761 195.579 7.32861C191.531 3.28113 184.969 3.28114 180.922 7.32862C176.874 11.3761 176.874 17.9384 180.922 21.9858C184.969 26.0333 191.531 26.0333 195.579 21.9858Z" fill="#A50034"/>
<path d="M171.69 115.302C172.182 115.36 171.936 117.644 173.388 120.771C174.211 122.565 175.409 124.163 176.902 125.455C178.651 126.994 180.829 127.963 183.144 128.23C185.471 128.381 187.789 127.826 189.795 126.638C191.494 125.65 192.963 124.313 194.105 122.715C196.096 119.939 196.272 117.609 196.763 117.644C196.962 117.644 197.162 118.229 197.162 119.33C197.117 120.899 196.717 122.436 195.99 123.827C194.899 125.929 193.286 127.716 191.306 129.015C188.858 130.74 185.876 131.538 182.893 131.265C179.911 130.993 177.123 129.668 175.028 127.528C173.318 125.893 172.059 123.843 171.374 121.579C170.886 120.068 170.757 118.464 170.999 116.894C171.198 115.805 171.503 115.266 171.69 115.302Z" fill="white"/>
<path d="M271.737 145.645C271.62 145.645 272.967 143.537 274.267 139.848C275.883 135.017 276.906 130.006 277.312 124.928C277.781 119.868 277.898 114.781 277.663 109.704C277.581 107.748 277.487 106.19 277.393 105.019C277.314 104.453 277.295 103.88 277.335 103.31C277.485 103.861 277.583 104.426 277.628 104.996C277.792 106.085 277.956 107.666 278.096 109.68C278.463 114.798 278.405 119.937 277.921 125.045C277.508 130.171 276.418 135.22 274.677 140.059C274.125 141.518 273.46 142.932 272.686 144.286C272.409 144.765 272.092 145.22 271.737 145.645Z" fill="#263238"/>
<path d="M97.7116 102.244C97.6453 102.812 97.5237 103.373 97.3486 103.918C97.1963 104.445 97.0324 105.09 96.8801 105.862C96.7279 106.635 96.4937 107.479 96.3531 108.451C95.9426 110.708 95.6688 112.988 95.5334 115.278C95.3758 118.08 95.415 120.89 95.6505 123.687C95.9121 126.478 96.366 129.249 97.009 131.978C97.5466 134.211 98.2193 136.408 99.0232 138.56C99.3394 139.485 99.7025 140.293 99.9953 141.019C100.288 141.745 100.569 142.354 100.803 142.846C101.07 143.351 101.29 143.881 101.459 144.427C101.126 143.962 100.836 143.468 100.593 142.951C100.261 142.366 99.9605 141.764 99.6908 141.148C99.3629 140.445 98.9647 139.637 98.6251 138.712C97.7556 136.566 97.0356 134.363 96.4703 132.119C95.7849 129.363 95.3073 126.56 95.0415 123.733C94.8029 120.909 94.7794 118.071 94.9712 115.243C95.1346 112.932 95.4554 110.636 95.9315 108.369C96.1072 107.397 96.3531 106.542 96.5522 105.78C96.7513 105.019 96.9387 104.375 97.1144 103.848C97.2696 103.298 97.4694 102.761 97.7116 102.244Z" fill="#263238"/>
<path d="M103.029 210.559L103.474 210.688L104.785 211.133L109.774 212.889L113.381 214.177C114.704 214.622 116.168 215.044 117.726 215.524C120.853 216.449 124.378 217.656 128.383 218.592L134.625 220.197C136.803 220.747 139.098 221.157 141.464 221.672C146.148 222.75 151.29 223.488 156.688 224.354C168.364 225.956 180.131 226.797 191.915 226.872C203.7 226.803 215.467 225.962 227.142 224.354C232.505 223.488 237.611 222.762 242.366 221.672C244.708 221.169 247.05 220.759 249.205 220.209L255.459 218.604C259.452 217.667 262.977 216.461 266.104 215.536C267.662 215.056 269.126 214.634 270.449 214.189L274.056 212.901L279.045 211.144L280.356 210.699C280.504 210.641 280.657 210.598 280.813 210.57L280.38 210.758L279.092 211.261L274.138 213.123L270.449 214.505C269.137 214.962 267.673 215.395 266.116 215.899C262.989 216.859 259.476 218.089 255.47 219.061L249.217 220.7C247.05 221.263 244.743 221.684 242.378 222.211C237.693 223.312 232.54 224.061 227.153 224.952C215.454 226.593 203.658 227.45 191.845 227.516C180.035 227.441 168.243 226.581 156.548 224.94C151.172 224.061 146.008 223.3 141.323 222.199C138.981 221.672 136.639 221.251 134.484 220.689L128.231 219.049C124.225 218.077 120.712 216.848 117.585 215.887C116.028 215.384 114.576 214.95 113.252 214.494L109.657 213.147L104.703 211.285L103.415 210.781C103.279 210.72 103.15 210.645 103.029 210.559Z" fill="#263238"/>
<g opacity="0.3">
<path d="M103.427 210.688C103.427 210.688 113.604 189.608 192.208 188.683C270.812 187.757 280.989 210.688 280.989 210.688C280.989 210.688 201.659 249.791 103.427 210.688Z" fill="black"/>
</g>
<path d="M175.063 45.0708C174.973 45.0793 174.883 45.0793 174.793 45.0708L174.009 45.1527C173.306 45.223 172.276 45.2464 170.952 45.3987C167.218 45.7611 163.513 46.3753 159.862 47.2373C140.977 51.5622 124.321 62.6307 113.018 78.3651C107.557 85.9263 103.423 94.3615 100.792 103.31C100.382 104.574 100.159 105.581 99.9602 106.249L99.7377 107.022C99.7166 107.111 99.6852 107.198 99.644 107.28C99.6284 107.19 99.6284 107.099 99.644 107.01C99.644 106.799 99.7377 106.542 99.8079 106.226C99.9719 105.546 100.148 104.527 100.522 103.239C101.5 99.6009 102.753 96.0422 104.27 92.594C109.276 81.1347 116.896 71.0074 126.521 63.0237C136.186 55.1002 147.573 49.5494 159.768 46.8157C163.441 45.9812 167.172 45.4292 170.929 45.1645C172.264 45.0473 173.271 45.0591 173.997 45.0239H174.793C174.981 45.0473 175.063 45.0591 175.063 45.0708Z" fill="white"/>
<path d="M101.553 135.222C101.084 134.497 100.721 133.708 100.475 132.88C99.0863 128.966 98.439 124.828 98.5666 120.677C98.5331 119.815 98.6359 118.954 98.871 118.124C99.0584 118.124 98.8008 122.035 99.5503 126.767C100.3 131.498 101.729 135.152 101.553 135.222Z" fill="white"/>
<path d="M81.8433 129.167C81.8433 129.167 81.5739 128.98 81.2109 128.535C80.6933 127.904 80.2494 127.217 79.8875 126.486C78.6369 124.065 78.1584 121.319 78.5165 118.617C78.8745 115.916 80.052 113.39 81.8901 111.378C82.4285 110.762 83.0378 110.212 83.7053 109.739C83.9346 109.546 84.1963 109.395 84.4782 109.294C84.5485 109.388 83.4945 110.102 82.218 111.636C80.5427 113.642 79.4707 116.083 79.1266 118.674C78.7825 121.265 79.1804 123.901 80.274 126.275C81.0938 128.137 81.9252 129.097 81.8433 129.167Z" fill="white"/>
<path d="M188.917 7.43163C188.003 7.33105 187.082 7.31145 186.165 7.37307C185.073 7.46892 184.017 7.81368 183.079 8.38093C182.14 8.94817 181.344 9.72281 180.752 10.6454C180.159 11.568 179.786 12.6141 179.661 13.7034C179.535 14.7926 179.661 15.8961 180.028 16.9292C180.345 17.7861 180.736 18.613 181.199 19.4003C181.199 19.4003 180.965 19.2597 180.637 18.885C180.187 18.3428 179.831 17.7293 179.583 17.0698C179.137 15.9762 178.96 14.7911 179.068 13.6147C179.176 12.4384 179.566 11.3054 180.205 10.3116C180.844 9.31789 181.712 8.49265 182.738 7.90572C183.763 7.31879 184.914 6.98747 186.095 6.93977C186.796 6.89113 187.5 6.95839 188.179 7.13886C188.706 7.22083 188.917 7.3965 188.917 7.43163Z" fill="white"/>
<path d="M290.99 114.962C290.861 115.102 289.046 113.358 286.306 112.046C283.565 110.734 281.071 110.348 281.094 110.16C283.003 110.113 284.891 110.574 286.563 111.495C288.324 112.232 289.853 113.429 290.99 114.962Z" fill="white"/>
<path d="M130.362 319.986C130.309 319.916 130.262 319.842 130.222 319.764L129.835 319.073C129.484 318.405 129.015 317.515 128.406 316.379C128.102 315.794 127.774 315.138 127.399 314.435L126.298 312.093C125.502 310.395 124.612 308.463 123.734 306.237C123.289 305.148 122.82 304.001 122.328 302.818C121.836 301.635 121.415 300.347 120.935 299.047C119.928 296.459 119.073 293.613 118.077 290.662C116.239 284.689 114.435 278.073 112.854 271.046C111.273 264.019 110.125 257.239 109.189 251.067C108.252 244.895 107.643 239.356 107.268 234.601C107.045 232.259 106.905 230.128 106.788 228.254C106.671 226.38 106.565 224.741 106.53 223.453C106.495 222.164 106.46 221.169 106.425 220.419V219.635C106.412 219.545 106.412 219.455 106.425 219.365C106.438 219.455 106.438 219.545 106.425 219.635L106.495 220.419C106.495 221.157 106.624 222.176 106.706 223.441C106.788 224.706 106.905 226.369 107.069 228.231C107.233 230.093 107.385 232.224 107.643 234.566C108.064 239.251 108.814 244.825 109.692 250.962C110.57 257.098 111.847 263.844 113.393 270.87C114.939 277.897 116.754 284.502 118.546 290.463C119.541 293.414 120.373 296.248 121.356 298.836C121.825 300.148 122.27 301.401 122.715 302.607L124.073 306.05C124.916 308.24 125.783 310.184 126.556 311.906L127.61 314.248C127.95 314.962 128.277 315.618 128.57 316.215L129.882 318.956L130.21 319.67C130.281 319.764 130.332 319.872 130.362 319.986Z" fill="white"/>
<path d="M84.5368 224.507C81.6796 224.615 78.8183 224.513 75.976 224.202C73.1204 224.102 70.2754 223.801 67.4622 223.3C70.3193 223.192 73.1806 223.294 76.0229 223.605C78.8786 223.704 81.7237 224.005 84.5368 224.507Z" fill="white"/>
<path d="M40.48 199.504C38.8191 197.084 37.3282 194.552 36.0182 191.927C34.5334 189.397 33.2264 186.768 32.1067 184.057C33.7626 186.481 35.2495 189.017 36.5569 191.645C38.0492 194.169 39.3602 196.795 40.48 199.504Z" fill="white"/>
<path d="M171.936 356.911C171.475 356.902 171.016 356.847 170.566 356.747C169.327 356.526 168.102 356.229 166.9 355.857C165.114 355.313 163.369 354.644 161.677 353.854C159.616 352.861 157.635 351.71 155.751 350.411C153.889 349.08 152.134 347.604 150.505 345.996C149.185 344.674 147.964 343.257 146.851 341.757C146.089 340.756 145.396 339.703 144.778 338.607C144.525 338.222 144.317 337.809 144.157 337.377C144.251 337.318 145.235 339.016 147.191 341.499C148.34 342.943 149.58 344.312 150.903 345.598C154.145 348.747 157.864 351.364 161.923 353.351C163.581 354.152 165.286 354.852 167.029 355.447C170.027 356.454 171.959 356.794 171.936 356.911Z" fill="white"/>
<path d="M189.901 302.736C189.63 302.783 189.356 302.81 189.081 302.818C188.302 302.884 187.52 302.907 186.739 302.888C183.827 302.824 180.937 302.355 178.155 301.495C176.232 300.896 174.36 300.144 172.557 299.246C170.489 298.183 168.529 296.924 166.701 295.487C162.468 292.235 159.131 287.96 157.005 283.064C154.879 278.167 154.032 272.811 154.545 267.498C154.736 265.192 155.148 262.909 155.775 260.682C156.336 258.75 157.061 256.869 157.941 255.061C159.212 252.437 160.844 250.005 162.79 247.835C163.312 247.242 163.867 246.679 164.453 246.148C164.647 245.954 164.854 245.774 165.073 245.61C165.073 245.61 164.3 246.441 162.965 247.952C161.091 250.156 159.516 252.597 158.281 255.213C156.439 259.067 155.343 263.236 155.049 267.498C154.574 272.717 155.419 277.971 157.507 282.778C159.594 287.585 162.856 291.79 166.994 295.007C168.768 296.434 170.673 297.689 172.686 298.754C174.449 299.684 176.286 300.468 178.178 301.096C180.92 301.985 183.766 302.509 186.645 302.654C188.765 302.736 189.901 302.666 189.901 302.736Z" fill="white"/>
<path d="M48.1156 210.512C48.1156 210.606 47.2139 210.172 45.7734 209.833C43.8459 209.411 41.8479 209.431 39.9292 209.891C38.0105 210.352 36.221 211.24 34.6948 212.491C33.5237 213.463 32.9616 214.236 32.8796 214.177C33.201 213.403 33.6981 212.713 34.3318 212.163C35.8517 210.769 37.7025 209.785 39.7088 209.305C41.7151 208.826 43.8106 208.866 45.7969 209.423C46.6433 209.603 47.4368 209.975 48.1156 210.512Z" fill="white"/>
<path d="M221.052 94.0695C221.052 94.2335 206.671 94.374 188.94 94.374C171.21 94.374 156.817 94.2335 156.817 94.0695C156.817 93.9056 171.198 93.765 188.94 93.765C206.683 93.765 221.052 93.8821 221.052 94.0695Z" fill="white"/>
<path d="M166.244 167.298C166.069 167.348 165.888 167.375 165.706 167.38L164.136 167.521C163.457 167.579 162.626 167.626 161.654 167.65C160.682 167.673 159.581 167.72 158.363 167.65C155.915 167.65 153.011 167.474 149.79 167.134C146.305 166.729 142.845 166.131 139.426 165.343C136.015 164.525 132.653 163.516 129.355 162.321C126.668 161.337 124.033 160.215 121.462 158.96C120.29 158.445 119.389 157.906 118.534 157.449C117.679 156.993 116.953 156.583 116.367 156.278L115.02 155.459C114.861 155.37 114.712 155.264 114.575 155.142C114.575 155.142 114.763 155.142 115.079 155.353L116.484 156.068C117.082 156.395 117.819 156.782 118.686 157.239C119.553 157.695 120.536 158.164 121.649 158.656C123.851 159.686 126.532 160.787 129.554 161.876C136.121 164.231 142.933 165.833 149.861 166.654C153.046 167.029 155.939 167.24 158.363 167.298C159.534 167.369 160.705 167.298 161.654 167.298C162.602 167.298 163.445 167.298 164.125 167.298H165.694C165.876 167.268 166.062 167.268 166.244 167.298Z" fill="white"/>
<path d="M259.733 220.068C259.647 220.125 259.552 220.169 259.452 220.197L258.609 220.513L255.353 221.684C253.936 222.199 252.203 222.797 250.154 223.394C248.104 223.991 245.797 224.764 243.186 225.42L239.11 226.497C237.693 226.86 236.194 227.165 234.66 227.528C231.592 228.266 228.266 228.851 224.776 229.519C209.575 232.166 194.127 233.113 178.717 232.341C175.203 232.119 171.796 231.943 168.657 231.58C167.088 231.416 165.565 231.299 164.113 231.1L159.932 230.526C157.262 230.21 154.873 229.73 152.777 229.355C150.681 228.98 148.865 228.629 147.402 228.289L144.029 227.54L143.15 227.329C143.049 227.312 142.95 227.28 142.858 227.235C142.963 227.226 143.069 227.226 143.174 227.235L144.052 227.387L147.448 228.031C148.924 228.324 150.727 228.664 152.835 228.98C154.943 229.296 157.321 229.753 159.991 230.046L164.16 230.573C165.612 230.76 167.135 230.866 168.704 231.018C171.831 231.357 175.203 231.51 178.74 231.72C185.825 232.013 193.613 232.025 201.787 231.545C209.962 231.065 217.679 230.046 224.671 228.898C228.184 228.254 231.486 227.727 234.555 226.977C236.089 226.626 237.588 226.333 239.005 225.982L243.08 224.94C245.692 224.319 247.999 223.593 250.048 223.007C252.098 222.422 253.854 221.836 255.271 221.403L258.562 220.349L259.429 220.091L259.733 220.068Z" fill="white"/>
</svg>
